<svg version="1.0" xmlns="http://www.w3.org/2000/svg"
 width="96.000000pt" height="96.000000pt" viewBox="0 0 96.000000 96.000000"
 preserveAspectRatio="xMidYMid meet">

<g transform="translate(0.000000,96.000000) scale(0.100000,-0.100000)"
fill="#000000" stroke="none">
<path d="M145 815 l-25 -24 0 -311 0 -311 25 -24 24 -25 311 0 311 0 24 25 25
24 0 311 0 311 -25 24 -24 25 -311 0 -311 0 -24 -25z m615 -335 l0 -280 -280
0 -280 0 0 280 0 280 280 0 280 0 0 -280z"/>
<path d="M280 641 c0 -41 0 -41 38 -41 153 0 282 -129 282 -282 0 -38 0 -38
41 -38 l42 0 -5 63 c-15 178 -157 320 -334 335 l-64 5 0 -42z"/>
<path d="M280 483 l0 -40 46 -6 c64 -7 104 -47 111 -111 l6 -46 40 0 40 0 -6
55 c-11 104 -78 171 -181 182 l-56 6 0 -40z"/>
<path d="M290 345 c-15 -18 -10 -45 13 -59 34 -22 73 27 47 59 -16 19 -44 19
-60 0z"/>
</g>
</svg>