<?xml version="1.0" standalone="no"?>
<!DOCTYPE svg PUBLIC "-//W3C//DTD SVG 20010904//EN"
 "http://www.w3.org/TR/2001/REC-SVG-20010904/DTD/svg10.dtd">
<svg version="1.0" xmlns="http://www.w3.org/2000/svg"
 width="800.000000pt" height="800.000000pt" viewBox="0 0 800.000000 800.000000"
 preserveAspectRatio="xMidYMid meet">
<metadata>
Created by potrace 1.14, written by Peter Selinger 2001-2017
</metadata>
<g transform="translate(0.000000,800.000000) scale(0.100000,-0.100000)"
fill="#000000" stroke="none">
<path d="M0 4000 l0 -4000 4000 0 4000 0 0 4000 0 4000 -4000 0 -4000 0 0
-4000z m2680 1536 c202 -47 323 -109 440 -226 97 -97 153 -195 191 -335 32
-117 32 -375 1 -489 -93 -336 -334 -554 -710 -642 -49 -12 -144 -17 -354 -21
l-288 -5 0 -529 0 -529 -165 0 -165 0 0 1401 0 1401 488 -5 c417 -3 498 -6
562 -21z m1967 -761 c523 -1188 568 -1292 609 -1403 21 -56 40 -99 44 -95 3 5
30 71 60 148 29 77 255 588 501 1135 l448 995 206 3 205 2 0 -1400 0 -1400
-161 0 -160 0 5 1148 c3 631 7 1176 10 1212 l6 65 -30 -105 c-21 -73 -181
-444 -523 -1212 l-491 -1108 -81 0 -80 0 -489 1093 c-392 877 -494 1115 -519
1207 l-32 116 3 -1208 3 -1208 -156 0 -155 0 0 1400 0 1400 217 -2 217 -3 343
-780z"/>
<path d="M1960 4690 l0 -572 273 4 c244 4 280 7 345 27 103 30 180 72 245 131
71 65 113 131 144 228 21 65 25 96 25 202 1 109 -3 135 -26 203 -32 95 -59
139 -123 199 -60 55 -124 89 -225 119 -66 20 -101 23 -365 26 l-293 5 0 -572z"/>
</g>
</svg>
